<svg width="64" height="64" viewBox="0 0 64 64" xmlns="http://www.w3.org/2000/svg">
  <path fill="#ffffff" d="M32 0C14.355 0 0 14.355 0 32s14.355 32 32 32 32-14.355 32-32S49.645 0 32 0zm10.667 48H21.333c-.553 0-1-.447-1-1v-2.938c0-.896.353-1.759 1-2.414a8.815 8.815 0 014.606-2.627l.972-5.834c-1.402-.762-2.845-2.04-2.845-3.792V25c0-2.657 2.343-5 5-5 .553 0 1 .447 1 1v6.578c0 .414.336.75.75.75s.75-.336.75-.75V21c0-.553.447-1 1-1h.5c.553 0 1 .447 1 1v10.328c0 1.61.939 3.017 2.343 3.782l.994 5.947c1.522.349 3.056.864 4.45 1.603.647.323 1.029.976 1.029 1.706v2.938c0 .553-.447 1-1 1z"/>
</svg>
